<svg width="256" height="256" xmlns="http://www.w3.org/2000/svg"><path d="M128.175 247.272c-19.294 0-36.544-2.607-51.75-7.82-15.205-5.213-28.102-12.826-38.69-22.84-10.588-10.014-18.676-22.178-24.265-36.492C7.882 165.806 5.06 149.548 5 131.347c.059-18.143 2.882-34.74 8.47-49.79 5.589-15.05 13.78-28.068 24.574-39.053C48.838 31.518 62.087 23.02 77.793 17.012 93.499 11.004 111.469 8 131.704 8c18.235 0 34.69 2.489 49.367 7.466 14.676 4.978 27.235 12.282 37.676 21.913 10.44 9.63 18.44 21.456 24 35.475 5.558 14.02 8.308 30.1 8.251 48.243.057 12.37-1.237 23.194-3.884 32.472-2.647 9.277-6.559 17.097-11.735 23.459-5.177 6.361-11.515 11.31-19.015 14.844-7.5 3.534-16.073 5.743-25.72 6.626-8.647.825-14.852.413-18.617-1.237-3.765-1.649-6.206-4.005-7.324-7.068-1.117-3.063-2-6.303-2.647-9.72h-1.058c-1.353 3.653-4.5 6.834-9.441 9.543-4.941 2.71-10.765 4.742-17.47 6.097-6.706 1.355-13.383 1.796-20.03 1.325-6.47-.471-12.94-2.032-19.411-4.683-6.47-2.65-12.397-6.627-17.78-11.928-5.382-5.301-9.69-12.12-12.926-20.455-3.235-8.335-4.882-18.363-4.94-30.085.058-11.781 1.69-21.795 4.896-30.042s7.353-15.05 12.441-20.41c5.088-5.36 10.588-9.484 16.5-12.37 5.912-2.887 11.573-4.801 16.985-5.744 7.117-1.296 14.03-1.458 20.735-.486 6.706.972 12.412 2.592 17.117 4.86 4.706 2.268 7.618 4.698 8.735 7.29h1.412v-9.897h33.53v90.478c.117 3.535.72 5.89 1.808 7.069 1.088 1.178 2.368 1.767 3.838 1.767 2.765 0 5.368-1.605 7.809-4.815 2.44-3.21 4.412-8.13 5.911-14.756 1.5-6.627 2.221-15.065 2.162-25.314.059-13.195-1.632-24.225-5.073-33.09-3.441-8.865-8.044-15.993-13.809-21.383-5.764-5.39-12.19-9.454-19.279-12.193a90.987 90.987 0 0 0-21.838-5.478c-7.47-.913-14.53-1.37-21.176-1.37-15.235 0-28.338 2.283-39.308 6.848-10.97 4.565-19.985 10.809-27.044 18.732-7.059 7.922-12.28 16.964-15.661 27.125-3.383 10.161-5.103 20.867-5.162 32.118.059 13.254 1.985 24.947 5.78 35.078 3.793 10.132 9.352 18.614 16.675 25.447 7.324 6.833 16.353 12.002 27.088 15.507 10.735 3.505 23.044 5.257 36.926 5.257 7 0 13.794-.398 20.382-1.193 6.588-.795 12.647-1.855 18.176-3.18 5.53-1.326 10.206-2.813 14.03-4.463l11.293 31.809c-3.705 2.474-8.896 4.757-15.573 6.848-6.676 2.09-14.382 3.77-23.117 5.036-8.735 1.266-18.073 1.9-28.014 1.9zm-.304-86.484c6.746 0 12.04-1.245 15.883-3.734 3.842-2.49 6.541-6.12 8.096-10.894 1.554-4.774 2.243-10.558 2.067-17.352-.058-5.154-.718-9.972-1.98-14.452-1.26-4.48-3.783-8.112-7.567-10.894-3.784-2.783-9.518-4.174-17.203-4.174-6.394 0-11.806 1.128-16.235 3.383s-7.802 5.593-10.119 10.016c-2.317 4.422-3.505 9.913-3.564 16.473.059 5.388 1.042 10.498 2.948 15.33 1.907 4.833 5.074 8.757 9.503 11.773 4.43 3.017 10.486 4.525 18.171 4.525z" fill="#000" fill-rule="nonzero"/></svg>